<svg width="472" height="273" viewBox="0 0 472 273" fill="none" xmlns="http://www.w3.org/2000/svg">
<g clip-path="url(#clip0_21_212)">
<path d="M120.434 266.445C120.434 266.445 43.1951 196.721 86.692 102.478C107.562 57.2628 163.138 46.6523 179.986 55.9068C202.199 68.1068 231.665 35.1484 295.347 12.5183C343.212 -4.49034 451.558 30.1891 416.274 136.859C394.871 201.564 477.261 184.542 464.482 267.236L120.432 266.447L120.434 266.445Z" fill="#DDE8FD"/>
<path d="M273.138 81.6331H132.769V266.377H273.138V81.6331Z" fill="#BED2FA"/>
<path d="M382.183 81.6331H273.14V273.002H382.183V81.6331Z" fill="white"/>
<path d="M308.819 0L262.829 94.5333H123.102L195.948 0.345903L308.819 0Z" fill="#3662C1"/>
<path d="M314.333 0L268.343 94.5333H128.616L201.464 0.345903L314.333 0Z" fill="#BED2FA"/>
<path d="M202.718 47.2677H199.782C189.813 47.2677 181.731 55.3359 181.731 65.2886V111.081H220.182V64.7029C220.182 55.0749 212.364 47.2677 202.718 47.2677Z" fill="#6D89CF"/>
<path d="M397.371 99.777H270.541L195.578 0L237.778 0.00848841L320.221 0.0233431L397.371 99.777Z" fill="#3662C1"/>
<path d="M397.371 99.777H374.131L237.778 0.00848389L320.221 0.0233386L397.371 99.777Z" fill="#3A49CD"/>
<path d="M186.231 120.934L153.488 188.235H54.0104L105.874 121.181L186.231 120.934Z" fill="#3662C1"/>
<path d="M189.211 120.934L156.468 188.235H56.9926L108.854 121.181L189.211 120.934Z" fill="#BED2FA"/>
<path d="M156.251 188.235V260.312H123.319C122.218 260.149 121.657 260.038 121.657 260.038C121.657 260.038 104.849 267.262 84.9659 260.454C75.847 257.33 66.0839 262.659 56.9926 256.013V188.235H156.251Z" fill="#BED2FA"/>
<path d="M240.303 188.235V246.824C234.298 248.57 228.495 250.126 222.899 251.503C203.638 256.24 186.827 258.905 172.723 260.31H156.251V188.233H240.303V188.235Z" fill="white"/>
<path d="M249.541 192.216H159.246L105.874 121.178L132.769 121.183L194.615 121.197L249.541 192.216Z" fill="#3662C1"/>
<path d="M126.784 203.176V260.312H123.319C122.218 260.149 121.657 260.038 121.657 260.038C121.657 260.038 104.849 267.262 84.9659 260.454V203.866C84.9659 197.68 87.6166 192.112 91.8466 188.235C95.6281 184.761 100.674 182.647 106.218 182.647C111.762 182.647 116.64 184.772 120.317 188.235C124.299 191.976 126.781 197.288 126.781 203.176H126.784Z" fill="#6D89CF"/>
<path d="M101.18 158.542C101.18 155.953 103.283 153.857 105.874 153.857C108.465 153.857 110.567 155.953 110.567 158.542C110.567 161.131 108.467 163.228 105.874 163.228C103.281 163.228 101.18 161.129 101.18 158.542Z" fill="#6D89CF"/>
<path d="M137.45 231.108H129.964L86.4434 200.08L113.458 200.087L137.45 231.108Z" fill="#3A49CD"/>
<path d="M334.361 266.396C302.891 257.082 264.742 248.519 233.404 256.013C202.065 263.506 190.024 273.615 155.609 250.355C152.487 248.244 149.605 246.68 146.907 245.563C152.984 244.464 161.104 242.544 157.506 240.6C153.754 238.573 147.475 242.036 143.844 244.458C142.936 244.18 142.048 243.955 141.176 243.777C149.469 237.849 164.172 226.638 157.333 226.263C150.584 225.891 142.428 237.141 138.445 243.365C137.763 243.299 137.089 243.259 136.426 243.248C136.073 240.014 134.776 234.286 130.015 233.93C125.147 233.565 130.895 239.88 134.338 243.303C115.809 244.534 103.268 265.534 64.3601 252.282C58.3849 250.247 52.2142 250.37 46.3985 251.626C42.7402 243.558 31.8761 221.611 22.8932 223.895C13.9187 226.176 36.1486 245.177 44.5832 252.057C43.5777 252.316 42.5872 252.607 41.6115 252.925C36.5036 249.165 26.9255 243.087 21.452 245.756C16.1017 248.364 29.5124 252.097 38.2424 254.141C26.6024 258.75 17.9255 266.377 17.9255 266.377L334.361 266.4V266.396Z" fill="#93B3F4"/>
<path d="M449.749 266.405H413.145C411.166 264.747 414.487 260.968 417.962 260.711C419.471 260.598 421.374 260.908 423.548 261.371C424.054 254.688 426.932 224.673 437.769 225.877C449.957 227.231 437.769 239.097 434.323 246.126C431.77 251.329 429.075 258.797 427.848 262.322C428.837 262.536 429.859 262.75 430.909 262.941C432.521 257.988 438.532 241.328 446.18 242.297C455.159 243.433 451.547 250.111 445.187 254.077C440.515 256.991 434.782 261.137 432.059 263.139C434.366 263.514 436.778 263.765 439.225 263.709C445.51 263.561 448.571 265.416 449.751 266.405H449.749Z" fill="#93B3F4"/>
<path d="M257.119 61.1293C257.119 61.1293 265.83 65.244 267.809 64.7241C269.788 64.2063 277.309 62.88 278.363 63.3469C278.363 63.3469 279.56 65.2546 278.656 66.5088C277.753 67.763 270.436 71.1562 267.794 71.2793C265.152 71.4024 255.119 69.588 252.991 67.9285L257.117 61.1293H257.119Z" fill="#EA8888"/>
<path d="M278.099 63.3872C278.099 63.3872 281.458 61.9951 282.559 63.5506C283.658 65.1061 284.283 66.6807 284.145 67.4786C284.009 68.2765 281.741 68.6267 280.833 68.007C279.925 67.3874 277.681 66.5215 277.681 66.5215L278.099 63.3872Z" fill="#EA8888"/>
<path d="M294.156 258.587C294.156 258.587 292.303 261.581 292.262 265.057C292.254 265.829 292.885 266.46 293.661 266.46H305.22C306.341 266.46 307.165 265.409 306.889 264.325C306.351 262.211 305.199 259.017 302.891 257.08C299.207 253.988 294.156 258.587 294.156 258.587Z" fill="#030231"/>
<path d="M275.865 255.522C275.865 255.522 275.2 266.222 273.127 266.377C272.851 266.398 262.61 266.398 262.61 266.398H249.399C249.399 266.398 249.622 263.177 253.444 262.513C257.266 261.848 263.662 259.166 265.977 254.124C268.413 248.819 275.865 255.524 275.865 255.524V255.522Z" fill="#030231"/>
<path d="M281.4 189.419C280.939 195.363 280.88 200.055 281.49 202.281C284.217 212.234 276.575 257.169 276.575 257.169C270.942 259.858 262.944 257.142 262.944 257.142C263.43 250.917 260.465 195.193 257.706 161.197C256.552 146.926 255.684 136.939 255.684 136.939L289.425 133.018C289.425 133.018 282.997 168.773 281.398 189.419H281.4Z" fill="#030231"/>
<path d="M289.425 133.018C289.425 133.018 282.997 168.773 281.398 189.419L257.706 161.197C256.552 146.926 255.684 136.939 255.684 136.939L289.425 133.018Z" fill="#030231"/>
<path d="M272.875 140.642C272.875 140.642 289.954 239.927 292.892 259.151C292.892 259.151 299.286 260.934 305.82 258.171C305.82 258.171 306.664 212.034 304.43 198.136C302.193 184.239 305.62 141.275 302.017 137.279C298.414 133.283 272.875 140.64 272.875 140.64V140.642Z" fill="#0B0754"/>
<path d="M274.635 55.9789C274.635 55.9789 273.323 64.8026 273.899 67.4383C274.473 70.0739 283.254 71.5064 286.927 69.3291C290.6 67.1518 289.495 66.3433 289.495 66.3433C289.495 66.3433 288.934 56.2421 288.419 55.5206C287.903 54.8012 274.637 55.9789 274.637 55.9789H274.635Z" fill="#FC9290"/>
<path d="M302.891 109.825C304.053 98.7415 303.756 90.3995 302.659 84.1244C299.451 65.7067 289.401 65.0934 289.401 65.2122C289.401 67.6908 284.062 69.9785 279.753 69.6962C276.122 69.4586 273.767 66.7041 273.767 65.2122C273.767 65.1995 273.699 65.2016 273.578 65.2122C272.641 65.2207 268.332 65.2992 264.259 66.0038C261.307 66.5131 258.48 67.3492 257.151 68.7307C256.467 69.4416 254.022 71.4364 250.885 74.1463C242.89 81.0474 230.392 92.6001 230.944 99.4842C230.944 99.4842 246.395 110.812 256.186 103.711C255.653 122.144 252.303 141.669 253.123 141.655C253.123 141.655 258.582 146.372 275.162 146.372C284.228 146.372 290.785 145.597 295.334 144.7C301.532 143.48 304 142.037 304 142.037C305.382 142.015 302.491 113.651 302.891 109.825Z" fill="#FA7269"/>
<path d="M303.998 142.037C303.998 142.037 301.53 143.48 295.332 144.7C286.766 140.912 269.76 131.12 269.095 114.678C268.213 92.808 294.958 79.7847 294.958 79.7847C294.958 79.7847 298.546 81.7752 302.657 84.1222C303.751 90.3973 304.049 98.7393 302.888 109.823C302.487 113.649 305.378 142.013 303.998 142.034V142.037Z" fill="#ED6966"/>
<path d="M274.494 56.9742C274.494 56.9742 277.9 61.7659 281.5 61.8104C285.101 61.8529 288.779 57.0506 288.779 57.0506L274.494 56.9763V56.9742Z" fill="#EA8888"/>
<path d="M274.165 56.7344C275.106 57.4751 277.215 58.4979 278.939 59.1749C280.246 59.6884 281.694 59.7181 283.02 59.2619C285.008 58.5786 288.015 57.509 288.778 57.0485C290.581 55.9578 290.466 53.7486 290.558 50.6758C290.668 47.0407 291.036 44.1865 290.63 42.0898C290.147 39.5836 288.555 38.1554 284.096 37.7692C275.912 37.0604 272.502 39.1061 272.36 41.8458C272.324 42.5821 272.29 43.2824 272.264 43.9467C271.937 52.4881 272.613 55.5164 274.163 56.7344H274.165Z" fill="#FC9290"/>
<path d="M272.313 42.8538C272.313 42.8538 273.652 40.8823 276.171 41.6548C278.69 42.4293 278.947 44.5769 283.252 44.2331C287.556 43.8893 288.589 41.8564 289.363 42.8729C290.137 43.8893 290.585 49.897 290.585 49.897C290.585 49.897 299.239 30.1975 281.698 30.1975C281.698 30.1975 263.622 29.1068 272.309 49.1331V42.8559L272.313 42.8538Z" fill="#030231"/>
<path d="M240.442 61.5113L240.465 61.5242C240.446 61.5349 240.442 61.5113 240.442 61.5113Z" fill="#FC9290"/>
<path d="M280.812 122.097C280.812 122.097 278.516 123.901 275.16 123.901C275.16 123.901 271.735 120.134 268.849 116.489C266.98 114.129 265.339 111.82 265.001 110.621C264.14 107.572 248.03 106.712 246.057 104.564C244.083 102.417 254.063 97.0268 254.063 97.0268C254.063 97.0268 270.417 99.5245 272.877 102.731C273.854 104.009 275.31 107.336 276.711 110.88C278.826 116.24 280.814 122.097 280.814 122.097H280.812Z" fill="#EA8888"/>
<path d="M257.921 77.3358C257.921 77.3358 261.02 71.3281 262.552 71.5021C264.083 71.6761 259.032 83.9376 258.573 89.8965C258.114 95.8554 257.921 77.3358 257.921 77.3358Z" fill="#ED6966"/>
<path d="M267.62 118.696C265.469 123.893 262.684 128.631 262.327 129.23C262.304 129.272 262.289 129.293 262.289 129.293H262.238C261.717 129.289 257.226 129.189 256.788 127.39C256.788 127.39 256.643 121.161 256.892 116.213C257.005 114.001 257.194 112.047 257.508 111.016C257.508 111.016 233.155 110.852 233.584 103.975C234.011 97.0968 246.744 93.4595 254.063 97.0246C254.063 97.0246 263.768 100.545 268.876 105.195C271.384 107.48 269.841 113.331 267.622 118.693L267.62 118.696Z" fill="#FC9290"/>
<path d="M234.309 94.3317C234.309 94.3317 231.067 99.0895 231.826 103.529C232.587 107.968 241.838 110.341 248.311 110.623C248.311 110.623 266.827 106.387 263.955 99.0173C263.305 97.3472 234.307 94.3317 234.307 94.3317H234.309Z" fill="#0B0754"/>
<path d="M241.032 35.8635C241.032 35.8635 238.091 29.8538 230.989 33.5292C223.885 37.2047 230.802 51.0493 227.073 54.5083C223.345 57.9695 228.425 60.2338 227.669 62.7145C226.912 65.1953 229.074 68.0177 234.043 67.6845C239.015 67.3534 244.249 67.6208 246.495 63.279C248.74 58.9372 248.23 49.3835 247.363 48.0423C246.495 46.699 241.035 35.8635 241.035 35.8635H241.032Z" fill="#0B0754"/>
<path d="M252.545 68.8028L240.467 61.5261C240.535 61.4985 240.777 61.1356 241.681 58.5276C242.066 57.4156 242.27 56.45 242.369 55.6861C242.38 55.6097 242.389 55.5354 242.397 55.4632C242.52 54.3513 242.431 53.7104 242.431 53.7104L245.078 54.6653L249.971 56.4352C249.913 57.6745 250.088 58.5467 250.351 59.143C250.991 60.5966 252.181 60.6051 252.215 60.6051L252.547 68.8028H252.545Z" fill="#FC9290"/>
<path d="M250.349 59.1408C245.62 59.5419 242.956 56.4628 242.367 55.6839C242.28 55.5715 242.238 55.5078 242.238 55.5078C242.238 55.5078 242.295 55.4908 242.395 55.4611C242.78 55.3486 243.823 55.0346 245.073 54.6632L249.966 56.433C249.909 57.6723 250.083 58.5445 250.347 59.1408H250.349Z" fill="#EA8888"/>
<path d="M250.587 57.4453C250.587 57.4453 240.08 58.5976 239.863 51.5034C239.649 44.4092 238.095 41.1645 245.364 40.5321C252.634 39.8997 254.352 42.5142 254.781 44.9143C256.12 52.4117 253.546 57.127 250.587 57.4453Z" fill="#FC9290"/>
<path d="M245.879 44.0527C242.14 43.1084 243.57 49.7209 242.625 49.2688C241.568 48.7617 239.751 48.7702 240.038 50.0434C240.325 51.3167 240.737 51.7729 240.954 52.5687C241.169 53.3645 240.954 54.9391 240.082 54.6229C239.213 54.3046 231.127 45.0883 236.836 37.9071C242.546 30.728 259.57 35.1505 254.209 42.6606C253.266 43.9806 248.54 44.7254 245.879 44.0527Z" fill="#0B0754"/>
<path d="M259.426 97.0204C259.426 97.0204 256.269 98.6926 251.297 98.6141C248.13 98.5674 241.404 97.1923 237.081 95.6347C234.617 94.7498 232.932 93.8033 233.136 93.0075C233.427 91.8616 235.538 83.0697 237.487 74.9336C239.27 67.4935 240.92 60.603 240.92 60.603C240.92 60.603 245.841 64.0939 248.708 62.863C251.576 61.6301 251.208 60.238 251.208 60.238C251.208 60.238 254.588 59.8242 255.504 59.9324C256.966 60.1043 262.136 61.9845 262.136 61.9845C262.136 61.9845 262.816 63.8901 261.013 66.8653C259.521 69.3291 258.069 69.8066 258.069 69.8066C258.069 69.8066 262.293 83.0994 259.426 97.0204Z" fill="#93B3F4"/>
<path d="M243.613 85.1536C243.613 85.1536 246.648 84.587 247.834 85.3637C249.021 86.1383 249.373 87.3543 248.517 87.8487C245.839 89.4021 243.122 87.6853 243.122 87.6853L243.611 85.1536H243.613Z" fill="#FC9290"/>
<path d="M237.081 95.6347C234.617 94.7497 232.932 93.8033 233.136 93.0075C233.427 91.8616 235.538 83.0697 237.487 74.9335C238.063 73.8789 238.429 73.2486 238.429 73.2486C238.429 73.2486 242.129 90.1363 237.081 95.6347Z" fill="#6D89CF"/>
<path d="M241.041 61.5516C241.041 61.5516 231.695 63.5272 228.007 78.0339C227.645 79.4536 228.019 80.9688 229.001 82.0553C230.695 83.9313 234.432 86.673 243.122 87.6831C244.07 87.7935 244.198 85.3913 244.198 85.3913C244.104 85.5823 238.295 81.6436 235.823 79.5279C235.376 79.1459 235.393 78.3416 235.716 77.8493C236.552 76.576 237.952 74.3754 238.424 73.2465C239.111 71.5997 243.651 62.2985 241.039 61.5494L241.041 61.5516Z" fill="#FC9290"/>
<path d="M240.92 60.603C240.92 60.603 235.425 60.9935 230.942 66.9587C230.942 66.9587 232.458 72.4465 239.576 73.9107C239.576 73.9107 243.964 64.0302 240.918 60.603H240.92Z" fill="#93B3F4"/>
<path d="M267.62 118.696C265.469 123.893 262.684 128.631 262.327 129.23C262.297 129.251 262.27 129.272 262.24 129.293C261.719 129.289 257.228 129.189 256.79 127.39C256.79 127.39 256.645 121.161 256.894 116.213C257.608 116.896 260.367 118.94 267.622 118.696H267.62Z" fill="white"/>
<path d="M280.812 122.097C280.812 122.097 278.516 123.901 275.16 123.901C275.16 123.901 271.735 120.134 268.849 116.489C272.096 115.088 275.525 111.998 276.709 110.878C278.824 116.238 280.812 122.095 280.812 122.095V122.097Z" fill="white"/>
<path d="M269.221 136.018C269.119 136.585 268.559 136.952 267.994 136.835C266.649 136.562 264.215 136.042 263.207 135.677C261.777 135.157 259.03 133.538 257.6 133.018C257.109 132.839 255.925 132.362 255.162 132.052C254.756 131.887 254.541 131.445 254.662 131.025C254.915 130.155 255.406 128.669 256.105 127.43C256.235 127.201 256.441 127.027 256.703 126.902C257.444 127.496 258.616 128.15 260.182 128.156C261.464 128.162 262.529 127.848 263.32 127.496C263.418 127.695 265.369 131.623 266.751 132.126C267.994 132.578 269.622 133.765 269.221 136.018Z" fill="#9E332E"/>
<path d="M289.65 122.144C289.922 122.651 289.71 123.286 289.193 123.545C287.966 124.162 285.735 125.259 284.714 125.595C283.269 126.072 280.108 126.499 278.663 126.974C278.165 127.137 276.943 127.494 276.148 127.723C275.727 127.844 275.283 127.63 275.119 127.224C274.779 126.384 274.243 124.915 274.022 123.509C273.982 123.247 274.037 122.984 274.163 122.723C275.115 122.732 276.439 122.522 277.672 121.558C278.682 120.769 279.324 119.865 279.728 119.101C279.927 119.196 283.898 121.074 285.295 120.614C286.551 120.2 288.566 120.124 289.648 122.142L289.65 122.144Z" fill="#9E332E"/>
<path d="M269.947 114.286C269.947 114.286 269.246 118.341 266.606 120.206C266.606 120.206 255.882 118.734 245.898 116.213C238.558 114.36 231.616 111.941 229.631 109.125C224.941 102.481 232.084 94.3911 232.084 94.3911C232.084 94.3911 245.851 101.025 260.758 109.15C263.811 110.814 266.908 112.541 269.947 114.286Z" fill="#FA7269"/>
<path d="M253.812 120.206C253.812 120.206 250.625 120.465 249.42 121.669C248.215 122.872 246.389 126.371 247.69 127.759C248.991 129.147 255.189 126.106 255.361 125.607C255.534 125.109 253.812 120.209 253.812 120.209V120.206Z" fill="#FC9290"/>
<path d="M269.948 114.286C269.948 114.286 269.246 118.341 266.606 120.206C266.606 120.206 255.882 118.734 245.898 116.213C250.591 112.138 256.724 110.112 260.761 109.15C263.813 110.814 266.91 112.541 269.95 114.286H269.948Z" fill="#ED6966"/>
<path d="M306.332 70.5535C304.189 65.469 290.088 65.2759 290.088 65.2759C282.914 84.0692 281.19 96.3944 279.294 104.316C278.988 104.286 278.699 104.286 278.435 104.316C278.435 104.316 268.358 108.242 253.378 119.101C253.378 119.101 251.812 123.39 254.624 126.9C254.624 126.9 280.433 121.212 287.641 116.994C287.648 116.994 287.652 116.994 287.652 116.994C287.724 116.947 287.794 116.902 287.867 116.856C287.977 116.788 288.081 116.722 288.181 116.654C311.625 101.447 309.395 77.8239 306.328 70.5493L306.332 70.5535Z" fill="#FA7269"/>
<path d="M248.987 168.062C248.087 168.162 246.087 168.491 246.087 168.491L245.075 159.289C245.075 159.289 248.457 165.774 248.987 168.062Z" fill="#030231"/>
<path d="M246.347 160.726C246.347 160.726 253.584 163.222 252.564 171.544C252.564 171.544 251.897 174.921 249.813 173.425C247.73 171.926 248.706 172.202 245.732 170.154C242.756 168.107 240.816 164.877 241.154 162.313L246.347 160.728V160.726Z" fill="#FC9290"/>
<path d="M246.678 161.261L242.393 166.451C242.193 166.693 241.878 166.804 241.568 166.748C237.551 166.012 223.721 157.114 219.192 153.483C218.7 153.091 218.32 152.757 218.071 152.505C216.384 150.788 210.559 142.31 206.425 134.762C204.046 130.414 202.227 126.373 202.082 124.111C201.568 116.03 205.825 104.73 205.825 104.73C218.422 109.106 219.746 119.145 219.746 119.145L226.729 145.09L246.508 159.847C246.959 160.185 247.037 160.828 246.678 161.261Z" fill="#93B3F4"/>
<path d="M219.194 153.481C218.703 153.089 218.322 152.755 218.073 152.503C216.386 150.786 210.561 142.308 206.427 134.76C205.891 130.197 206.259 125.919 208.142 122.927C208.142 122.927 218.849 141.737 219.194 153.481Z" fill="#6D89CF"/>
<path d="M211.937 228.232L209.796 237.145L208.472 242.662L204.061 261.029C204.061 261.029 200.286 262.19 196.36 261.029C196.36 261.029 194.906 254.951 194.866 247.371C194.842 243.407 195.208 239.029 196.369 234.898C196.84 233.215 197.444 231.577 198.207 230.019C204.431 217.329 211.939 228.232 211.939 228.232H211.937Z" fill="#FC9290"/>
<path d="M215.593 266.396H194.861C194.861 266.396 194.534 263.264 195.446 260.267C195.58 259.822 195.744 259.38 195.939 258.952C195.939 258.952 200.567 260 204.559 258.952C204.559 258.952 208.312 262.143 210.581 263.12C212.846 264.1 215.355 263.567 215.595 266.394L215.593 266.396Z" fill="#0B0754"/>
<path d="M209.794 237.147L208.47 242.665C206.217 244.099 201.353 246.701 194.861 247.373C194.838 243.409 195.204 239.032 196.364 234.9C198.271 233.934 200.212 233.429 201.865 233.716C205.981 234.433 208.425 235.933 209.794 237.147Z" fill="#EA8888"/>
<path d="M204.824 266.396H194.861C194.861 266.396 194.534 263.264 195.446 260.267C197.948 261.044 203.037 262.994 204.824 266.396Z" fill="#030231"/>
<path d="M195.41 228.232L193.269 237.145L191.945 242.662L187.534 261.029C187.534 261.029 183.759 262.19 179.833 261.029C179.833 261.029 178.379 254.951 178.339 247.371C178.315 243.407 178.681 239.029 179.842 234.898C180.311 233.215 180.917 231.577 181.68 230.019C187.904 217.329 195.412 228.232 195.412 228.232H195.41Z" fill="#FC9290"/>
<path d="M179.412 258.952C179.412 258.952 184.04 260 188.032 258.952C188.032 258.952 191.786 262.143 194.052 263.122C196.32 264.1 198.826 263.567 199.064 266.396H178.332C178.332 266.396 177.899 262.264 179.41 258.952H179.412Z" fill="#0B0754"/>
<path d="M193.269 237.147L191.945 242.665C189.692 244.099 184.828 246.701 178.339 247.373C178.315 243.409 178.681 239.032 179.842 234.9C181.748 233.934 183.689 233.429 185.343 233.716C189.458 234.433 191.903 235.933 193.274 237.147H193.269Z" fill="#EA8888"/>
<path d="M216.262 236.557C215.765 238.397 214.092 239.672 212.183 239.672H178.943C176.439 239.672 174.468 237.546 174.659 235.057C175.008 230.537 176.254 223.154 176.8 218.169C177.025 216.098 177.129 214.441 177 213.575C173.643 191.409 170.829 165.303 171.169 160.312C171.218 159.61 171.252 159.247 171.252 159.247C171.252 159.247 173.673 159.043 177.355 158.901C188.059 158.479 209.428 158.553 212.978 165.541C216.594 172.661 218.779 219.93 218.779 219.93C219.306 224.347 217.44 232.203 216.262 236.555V236.557Z" fill="#ED6966"/>
<path d="M176.798 218.169C177.023 216.098 177.127 214.441 176.998 213.575C173.641 191.409 170.827 165.303 171.167 160.312C171.216 159.61 171.25 159.247 171.25 159.247C171.25 159.247 173.671 159.043 177.353 158.901C182.89 162.158 186.495 167.705 186.495 167.705C186.495 167.705 185.379 209.184 176.798 218.169Z" fill="#E75755"/>
<path d="M197.44 67.9497C194.785 67.2876 193.242 69.3758 193.242 71.8353C193.242 74.2948 195.24 76.2896 197.703 76.2896C200.167 76.2896 202.165 73.4396 202.165 70.9801C202.165 68.5206 199.831 68.5461 197.44 67.9497Z" fill="white"/>
<path d="M196.069 93.4532C196.069 93.4532 182.235 81.0155 194.759 72.2109C194.759 72.2109 198.496 71.2157 200.397 71.5722C200.397 71.5722 207.203 69.5838 211.186 74.1993C215.17 78.8149 216.9 82.153 213.486 86.272C210.073 90.391 196.069 93.4553 196.069 93.4553V93.4532Z" fill="white"/>
<path d="M180.195 168.573C180.195 168.573 183.611 175.415 177.044 180.642C177.044 180.642 174.198 182.586 173.762 180.06C173.327 177.535 173.83 178.414 173.142 174.872C172.455 171.33 173.333 167.667 175.374 166.074L180.192 168.573H180.195Z" fill="#FC9290"/>
<path d="M207.401 93.3385C207.401 93.3385 207.231 95.2017 206.914 97.7186C206.759 98.9473 206.572 100.335 206.351 101.736C206.193 102.742 206.017 103.758 205.826 104.728L201.542 119.169L191.486 102.922C191.486 102.922 193.85 100.97 197.053 90.3909C197.083 90.2785 197.106 90.2169 197.106 90.2169L207.403 93.3407L207.401 93.3385Z" fill="#FC9290"/>
<path d="M213.261 164.582C213.393 166.205 212.98 166.5 212.98 166.5C212.98 166.5 206.797 168.739 191.246 167.964C189.562 167.88 187.979 167.795 186.497 167.708C176.475 167.118 171.114 166.5 171.114 166.5C171.114 166.5 162.905 147.584 178.328 124.277C180.071 121.641 182.118 118.95 184.512 116.223C187.009 113.38 187.56 109.575 188.506 105.959C188.776 104.923 187.994 104.694 188.385 103.716C188.385 103.716 191.197 102.922 191.488 102.922C193.084 104.327 195.193 107.058 200.422 107.597C203.959 107.966 205.343 105.976 205.845 104.783C207.192 105.269 208.589 106.109 209.732 106.657C219.208 111.198 220.08 120.007 220.08 120.007C220.08 120.007 211.371 148.596 210.831 152.165C210.589 153.753 212.587 156.221 213.263 164.58L213.261 164.582Z" fill="#93B3F4"/>
<path d="M206.914 97.7186C206.759 98.9473 206.238 102.315 206.017 103.716C195.367 99.5711 196.762 91.4923 197.053 90.3909C197.083 90.2785 197.106 90.2169 197.106 90.2169C197.106 90.2169 202.741 94.2107 206.916 97.7186H206.914Z" fill="#EA8888"/>
<path d="M209.197 99.1467C209.197 99.1467 196.898 99.5415 196.768 91.8892C196.641 84.239 194.966 79.1374 202.813 78.5624C210.661 77.9873 212.236 80.8818 212.902 83.4241C213.567 85.9664 212.392 98.8475 209.197 99.1467Z" fill="#FC9290"/>
<path d="M210.27 78.0615C210.27 78.0615 209.541 90.1193 195.389 88.8248C195.389 88.8248 195.69 72.1281 210.27 78.0615Z" fill="white"/>
<path d="M207.401 78.6854C207.401 78.6854 211.603 83.8782 213.508 85.5334C213.508 85.5334 218.182 78.8382 207.401 78.6854Z" fill="white"/>
<path d="M207.401 78.6854C207.401 78.6854 211.176 85.0496 213.082 86.707C213.082 86.707 218.184 78.8382 207.401 78.6854Z" fill="white"/>
<path d="M186.495 167.706C176.473 167.116 171.112 166.498 171.112 166.498C171.112 166.498 162.903 147.582 178.326 124.275C181.449 131.541 188.812 150.96 186.497 167.703L186.495 167.706Z" fill="#6D89CF"/>
<path d="M191.486 102.922C191.486 102.922 179.587 105.36 174.285 111.487C170.223 116.183 165.781 139.142 165.781 142.936C165.781 146.731 169.955 165.836 172.559 169.531C172.74 169.787 173.042 169.93 173.354 169.896L180.056 169.187C180.615 169.127 181.013 168.614 180.926 168.06L177.161 143.696L190.376 120.296C190.376 120.296 198.169 111.075 191.486 102.924V102.922Z" fill="#93B3F4"/>
<path d="M242.533 259.801C242.533 259.801 243.541 261.763 245.775 262.249C247.182 262.555 248.387 263.287 249.135 264.312C249.769 265.178 249.157 266.396 248.081 266.396H236.745C235.78 266.396 235.025 265.564 235.123 264.605C235.208 263.767 235.295 262.791 235.334 262.041C235.416 260.407 237.057 259.092 237.057 259.092L242.533 259.801Z" fill="#030231"/>
<path d="M245.101 231.258C245.575 239.863 244.399 259.425 244.399 259.425C244.399 259.425 243.609 261.606 238.618 262.126C235.944 262.404 233.537 261.713 233.537 261.713C232.53 257.082 231.599 252.658 230.742 248.456C224.58 218.275 222.176 199.633 222.176 199.633L246.5 193.988C246.5 193.988 245.435 211.026 245.12 222.647C245.022 226.273 244.999 229.374 245.101 231.26V231.258Z" fill="#6D89CF"/>
<path d="M246.5 193.986C246.5 193.986 245.435 211.024 245.12 222.645L230.74 248.456C224.578 218.275 222.174 199.633 222.174 199.633L246.497 193.988L246.5 193.986Z" fill="#3662C1"/>
<path d="M222.044 154.962C222.044 154.962 212.632 150.684 205.511 154.428C198.39 158.169 202.743 189.052 212.925 192.046C212.925 192.046 232.003 198.136 222.044 154.962Z" fill="#6D89CF"/>
<path d="M249.269 201.186C249.242 201.143 249.21 201.105 249.178 201.067C248.953 200.725 248.574 199.874 248.296 199.217C250.19 189.962 248.914 184.612 248.914 184.612C249.14 181.917 250.751 163.098 247.04 154.379C245.25 150.173 242.25 150.164 242.25 150.164C242.25 150.164 242.954 156.885 242.489 160.499C242.063 163.816 245.231 194.894 245.754 199.974C245.745 199.974 245.739 199.974 245.737 199.976L245.887 205.141L247.405 204.783C247.469 204.766 247.533 204.745 247.594 204.715C247.779 204.63 247.941 204.494 248.058 204.31L249.284 202.37C249.52 201.997 249.499 201.532 249.267 201.186H249.269ZM246.383 200.348L246.446 200.309L246.415 200.352C246.415 200.352 246.398 200.354 246.383 200.348Z" fill="#EA8888"/>
<path d="M222.799 259.801C222.799 259.801 223.806 261.763 226.04 262.249C227.447 262.555 228.651 263.287 229.401 264.312C230.034 265.178 229.422 266.396 228.347 266.396H217.011C216.046 266.396 215.291 265.564 215.389 264.605C215.474 263.767 215.561 262.791 215.599 262.041C215.682 260.407 217.323 259.092 217.323 259.092L222.799 259.801Z" fill="#030231"/>
<path d="M230.685 115.669C228.259 115.669 225.216 116.711 223.581 118.297C221.844 119.982 220.04 120.066 218.754 122.055C217.412 124.128 216.583 126.282 217.255 129.198C217.991 132.383 217.842 135.464 219.846 137.803C220.839 138.962 222.454 139.091 223.581 140.156C225.649 142.109 228.002 142.726 230.685 142.726C235.744 142.726 238.89 139.734 241.479 136.008C243.553 133.022 243.143 131.008 243.628 128.453C245.158 120.412 238.441 115.672 230.683 115.672L230.685 115.669Z" fill="#030231"/>
<path d="M237.806 148.082L228.136 153.016L226.2 146.319C226.2 146.319 227.43 144.002 227.99 140.205C228.223 138.609 228.338 136.75 228.189 134.692L236.067 138.72C236.067 138.72 235.88 139.448 235.752 140.519C235.618 141.678 235.559 143.242 235.888 144.727C236.173 146.003 236.745 147.221 237.806 148.08V148.082Z" fill="#FC9290"/>
<path d="M215.406 196.606C215.406 196.606 213.567 220.932 213.977 259.699C213.977 259.699 216.194 260.862 218.868 261.129C223.862 261.626 225.077 259.648 225.077 259.648C225.077 259.648 230.185 240.727 231.461 232.203C232.638 224.342 240.367 195.98 240.367 195.98L215.404 196.606H215.406Z" fill="#6D89CF"/>
<path d="M244.198 148.757C243.337 148.354 240.635 147.265 236.579 146.599C236.622 147.987 236.258 149.292 233.818 149.612C230.572 150.035 227.671 147.824 226.202 146.321C226.202 146.321 223.913 146.565 221.245 147.149C219.91 147.442 218.479 147.819 217.196 148.295C215.637 148.868 214.29 149.581 213.571 150.459C211.074 153.519 206.967 162.733 206.967 162.733C206.967 162.733 213.805 165.263 215.531 166.74L215.572 167.069L216.643 175.941L213.454 193.614C213.427 193.769 213.412 193.924 213.412 194.075C213.412 195.257 214.222 196.32 215.41 196.604C215.41 196.604 215.684 196.649 216.188 196.719C219.568 197.192 233.284 198.826 244.04 195.91C246.459 195.255 248.051 192.95 247.851 190.454L246.098 168.489C247.033 168.329 248.113 168.158 248.991 168.06C249.722 167.981 250.309 167.954 250.551 168.026C250.551 168.026 249.335 150.871 244.2 148.755L244.198 148.757Z" fill="#0B0754"/>
<path d="M223.902 181.357C223.766 187.524 219.719 194.769 216.184 196.721C215.68 196.651 215.406 196.606 215.406 196.606C214.215 196.322 213.408 195.259 213.408 194.077C213.408 193.926 213.423 193.771 213.45 193.616L216.639 175.943L215.567 167.071C215.618 166.916 215.646 166.833 215.646 166.833C215.646 166.833 224.142 170.464 223.902 181.359V181.357Z" fill="#030231"/>
<path d="M214.018 190.459L214.847 185.869C228.867 165.617 229.928 161.984 223.623 152.893C221.817 150.289 218.533 148.662 217.193 148.293C218.479 147.817 219.908 147.439 221.243 147.147C222.573 147.771 223.798 148.384 224.746 149.205C243.989 165.836 214.018 190.459 214.018 190.459Z" fill="#6D89CF"/>
<path d="M230.392 164.469C224.903 164.849 224.142 170.464 224.142 170.464C224.142 170.464 214.93 171.298 213.569 171.903C213.569 171.903 214.317 169.885 215.646 166.833C214.445 165.653 210.498 163.901 207.883 163.094C205.889 168.172 205.124 173.198 206.242 178.042C206.361 178.554 206.812 178.921 207.337 178.944C210.268 179.08 219.957 179.033 227.05 173.168L227.175 173.134C228.874 173.034 230.468 171.349 231.08 169.136C231.692 166.922 231.741 167.599 232.211 166.042C232.681 164.484 230.394 164.469 230.394 164.469H230.392Z" fill="#FC9290"/>
<path d="M235.888 144.727C231.41 144.609 227.987 140.203 227.987 140.203L235.752 140.519C235.618 141.678 235.559 143.242 235.888 144.727Z" fill="#EA8888"/>
<path d="M236.316 142.026C236.316 142.026 226.419 143.229 226.206 136.269C225.996 129.308 230.122 124.799 232.874 124.85C238.365 124.952 239.27 127.167 239.908 129.474C240.544 131.78 240.873 141.536 236.316 142.026Z" fill="#FC9290"/>
<path d="M233.669 138.015C233.669 138.015 233.884 138.883 236.052 138.724C236.052 138.724 237.872 138.59 237.806 137.635C237.806 137.635 236.033 136.975 233.669 138.017V138.015Z" fill="white"/>
<path d="M235.325 124.915C235.325 124.915 226.867 124.911 228.81 130.707C230.034 134.361 225.962 134.93 225.962 134.93L224.002 129.073L225.23 124.51L235.325 124.915Z" fill="#030231"/>
<path d="M350.252 121.244C348.145 117.749 346.836 102.152 345.316 97.9732C344.355 95.3333 341.781 92.1757 342.053 91.9804C339.313 90.3676 331.903 89.5931 331.903 89.5931C331.903 89.5994 331.903 89.6037 331.903 89.6079C331.614 89.5485 331.327 89.4869 331.049 89.4318C330.16 89.2535 329.323 88.7357 329.223 87.836C329.219 87.7914 329.215 87.7447 329.21 87.7001C329.096 86.5945 329.072 85.4656 329.087 84.4851C329.087 84.4724 329.087 84.4576 329.087 84.4448C329.11 82.8448 329.234 81.6564 329.234 81.6564L329.204 81.6521L319.596 80.1094C319.464 83.1037 319.292 85.3319 319.107 86.9956C318.967 88.2667 317.932 89.2578 316.652 89.3342C316.461 89.3448 316.267 89.3554 316.074 89.3702C316.074 89.3702 309.882 89.1283 307.512 89.8498C307.325 89.9071 307.125 89.9899 306.91 90.0981C307.055 90.2488 284.104 113.212 284.695 115.873C285.288 118.532 295.357 133.635 299.009 136.419H302.663C302.663 136.419 294.562 117.976 294.458 116.48C294.305 114.29 314.826 102.041 314.826 99.8067C314.826 98.994 320.548 98.7499 324.289 98.7775C328.252 98.8072 335.715 96.7424 335.715 96.7424C335.715 96.7424 338.941 121.147 343.018 128.385C346.232 134.094 360.434 148.719 360.434 148.719L363.429 146.066C363.429 146.066 355.362 129.703 350.256 121.24L350.252 121.244Z" fill="#FC9290"/>
<path d="M321.175 215.166C322.91 232.213 320.808 254.533 320.808 254.533H314.924C306.041 231.207 305.773 216.573 305.267 211.077C304.991 208.083 300.941 196.114 297.309 184.604C294.271 174.993 291.527 165.698 291.508 162.216C291.467 154.234 299.432 141.434 299.432 141.434C299.432 141.434 310.877 145.842 317.938 150.196C320.295 151.65 322.1 153.072 322.716 154.277C324.353 157.483 325.567 180.364 321.209 194.34C318.586 202.756 319.93 207.073 319.93 207.073C320.474 209.528 320.878 212.27 321.173 215.166H321.175Z" fill="#ED6966"/>
<path d="M321.212 194.342C318.588 202.758 319.932 207.075 319.932 207.075C320.476 209.53 320.88 212.272 321.175 215.168L297.309 184.606C294.271 174.995 291.527 165.7 291.508 162.218C291.467 154.237 299.432 141.436 299.432 141.436C299.432 141.436 310.877 145.844 317.938 150.198C320.295 151.652 322.1 153.074 322.716 154.279C324.353 157.486 325.567 180.366 321.209 194.342H321.212Z" fill="#E75755"/>
<path d="M314.924 254.533C314.924 254.533 314.59 258.364 314.097 259.153C313.604 259.941 311.531 262.602 309.163 263.489C306.795 264.376 300.019 263.915 299.492 266.375H323.373C323.373 266.375 323.703 262.691 322.78 260.265C321.86 257.84 320.805 254.536 320.805 254.536H314.922L314.924 254.533Z" fill="#0B0754"/>
<path d="M354.85 253.67C354.85 253.67 357.519 257.313 358.178 258.759C358.835 260.204 363.178 266.322 362.653 266.373C362.128 266.424 350.547 266.373 350.547 266.373C350.547 266.373 349.363 263.487 349.495 261.517C349.627 259.546 347.916 255.807 348.245 253.67C348.575 251.533 354.852 253.67 354.852 253.67H354.85Z" fill="#0B0754"/>
<path d="M354.85 253.67H348.243C348.243 253.67 322.485 216.495 321.598 207.041C320.491 195.221 312.218 148.562 312.218 148.562L338.642 140.349C338.642 140.349 340.95 146.279 342.887 152.257C343.73 154.863 344.502 157.479 344.98 159.618C346.039 164.338 343.059 182.17 341.027 194.847C340.021 201.09 339.248 206.086 339.301 207.648C339.454 212.376 348.139 212.989 354.85 253.67Z" fill="#ED6966"/>
<path d="M319.46 82.7004C319.445 82.9381 319.43 83.1716 319.415 83.3944C319.43 83.1694 319.445 82.9381 319.46 82.7004Z" fill="#0B0754"/>
<path d="M319.517 81.7158C319.505 81.9705 319.49 82.2188 319.475 82.4607C319.49 82.2166 319.503 81.9684 319.517 81.7158Z" fill="#0B0754"/>
<path d="M319.596 80.1136C319.588 80.3004 319.579 80.485 319.571 80.6654C319.579 80.485 319.588 80.3004 319.594 80.1136H319.596Z" fill="#0B0754"/>
<path d="M342.33 146.565C343.191 149.15 330.758 150.661 316.96 150.478C313.062 150.427 309.438 149.954 306.451 149.18C300.136 147.55 296.66 144.581 299.432 141.436C300.221 140.54 308.968 128.046 308.968 128.046C309.484 126.927 308.925 123.26 306.253 114.549C305.161 110.986 306.585 108.77 307.095 107.357C307.095 107.357 307.095 107.357 307.095 107.355C307.269 106.863 307.337 106.47 307.15 106.148C305.956 104.087 304.232 102.099 302.67 100.516C300.663 98.4762 298.922 97.1074 298.922 97.1074C298.922 97.1074 304.043 91.5348 306.906 90.1024C309.856 93.19 316.252 98.7202 324.287 98.7818C331.219 98.8348 337.953 94.9365 342.053 91.9783C342.362 92.1587 342.61 92.3518 342.782 92.5534C345.344 95.554 346.075 100.968 346.075 100.968C346.075 100.968 337.832 105.509 337.979 106.988C338.387 111.062 338.774 112.255 338.595 113.709V113.723C338.529 114.235 338.395 114.78 338.168 115.495C336.763 119.905 333.719 126.713 334.478 129.007C334.675 129.603 341.097 142.854 342.33 146.565Z" fill="#0B0754"/>
<path d="M307.51 89.852C307.644 89.8117 307.786 89.7735 307.943 89.7395C307.788 89.7756 307.641 89.8138 307.51 89.8541V89.852Z" fill="#FC9290"/>
<path d="M299.005 136.424C299.005 136.424 295.349 141.033 295.349 141.871C295.349 142.709 296.089 146.206 296.977 146.255C297.866 146.304 298.161 143.399 298.852 142.856C299.543 142.315 302.011 141.296 302.355 140.352C302.699 139.407 302.659 136.424 302.659 136.424H299.005Z" fill="#FC9290"/>
<path d="M319.139 86.7027C323.677 86.1192 329.202 81.6543 329.202 81.6543C325.977 79.9078 323.18 79.7401 321.007 80.3385C320.489 80.4807 320.006 80.6675 319.56 80.8861L319.139 86.7006V86.7027Z" fill="#EA8888"/>
<path d="M317.494 82.31C317.494 82.31 328.719 86.0491 330.945 79.0356C333.17 72.0199 336.119 67.78 329.045 65.0955C321.973 62.411 319.724 64.6456 318.41 66.8059C317.096 68.9662 314.631 81.1577 317.494 82.31Z" fill="#FC9290"/>
<path d="M321.522 79.2245C321.522 79.2245 321.107 80.0393 318.988 79.3815C318.988 79.3815 317.209 78.8319 317.496 77.896C317.496 77.896 319.411 77.6477 321.522 79.2245Z" fill="white"/>
<path d="M347.614 65.8425C346.356 64.2297 350.484 60.9043 342.098 56.9063C335.738 53.8738 333.766 58.4682 333.185 60.8619C329.404 58.708 323.231 52.5008 319.294 56.5434C314.582 61.3839 319.694 65.6472 319.694 65.6472C321.481 66.9481 322.351 66.5873 324.963 67.1603C327.576 67.7333 325.907 70.753 326.111 71.7716C326.315 72.7902 328.099 74.8487 330.515 73.8089C332.932 72.769 332.654 76.7437 330.356 77.5629C329.701 77.7963 329.021 81.4505 329.971 81.6055C330.768 81.7349 333.649 81.7625 333.942 79.4155C334.116 78.0234 335.889 77.2955 337.768 75.8567C339.069 77.0917 340.897 77.722 341.905 77.5777C343.39 77.3655 343.405 76.175 346.587 74.0571C349.769 71.9393 348.87 67.4574 347.612 65.8446L347.614 65.8425Z" fill="#0B0754"/>
<path d="M306.451 149.182C300.136 147.55 296.66 144.583 299.434 141.436C300.223 140.543 308.97 128.046 308.97 128.046C308.97 128.046 311.315 142.155 306.453 149.18L306.451 149.182Z" fill="#030231"/>
<path d="M329.663 88.7463C329.863 88.9501 330.12 89.1135 330.403 89.2344C330.12 89.1135 329.865 88.9522 329.663 88.7463Z" fill="#FC9290"/>
<path d="M330.403 89.2344C330.505 89.2769 330.611 89.3151 330.72 89.349C330.611 89.3172 330.505 89.279 330.403 89.2344Z" fill="#FC9290"/>
<path d="M363.425 146.071C363.425 146.071 368.473 147.376 369.166 148.08C369.857 148.785 371.836 154.251 371.141 154.302C367.523 154.565 365.614 152.628 365.614 152.628C363.427 150.224 360.157 149.842 360.321 148.082C360.483 146.323 363.427 146.073 363.427 146.073L363.425 146.071Z" fill="#FC9290"/>
<path d="M347.395 266.388L346.449 165.286C346.449 165.286 345.633 158.005 339.271 158.005C332.482 158.005 332.093 165.286 332.093 165.286C332.093 165.286 332.19 165.917 332.888 165.917C333.585 165.917 333.738 165.286 333.738 165.286C333.738 165.286 334.038 159.673 339.273 159.673C344.179 159.673 344.808 165.286 344.808 165.286V266.388H347.397H347.395Z" fill="#010117"/>
<path d="M343.932 266.388H348.154L347.778 261.98C347.778 261.98 347.814 261.369 346.962 261.333C346.169 261.301 344.604 261.188 344.455 261.666C344.324 262.086 343.932 266.388 343.932 266.388Z" fill="#010117"/>
<path d="M339.218 152.647L338.929 154.092C338.929 154.092 331.769 154.065 330.094 161.725C330.094 161.725 329.64 164.913 331.942 164.232C334.244 163.55 333.884 161.925 337.145 161.034C340.404 160.142 342.529 159.459 343.023 157.091L343.556 154.455L339.218 152.645V152.647Z" fill="#FC9290"/>
<path d="M364.536 89.9623C364.536 89.9623 362.642 97.4024 361.008 104.204C360.351 106.943 359.734 109.579 359.301 111.582C358.859 113.641 358.608 115.035 358.704 115.19C360.123 117.492 357.53 131.526 355.477 136.623C355.296 137.075 355.045 137.603 354.748 138.193C351.878 143.811 344.236 154.835 344.236 154.835C344.236 154.835 342.081 155.06 340.672 154.529C339.496 154.084 338.693 152.649 338.693 152.649C339.375 151.552 342.141 138.582 345.699 131.307C347.221 128.196 349.463 99.3314 352.409 95.4458C354.869 92.2032 364.536 89.9644 364.536 89.9644V89.9623Z" fill="#FA7269"/>
<path d="M358.703 115.19C360.123 117.492 357.53 131.526 355.477 136.623C355.296 137.075 355.045 137.603 354.748 138.193C352.006 126.08 356.55 108.921 356.55 108.921C357.685 109.369 358.608 115.037 358.703 115.192V115.19Z" fill="#ED6966"/>
<path d="M378.576 255.251C378.576 255.251 379.305 266.214 377.233 266.366C376.956 266.388 366.715 266.388 366.715 266.388H353.504C353.504 266.388 353.727 263.166 357.549 262.502C361.371 261.838 367.767 259.155 370.082 254.113C372.518 248.808 378.578 255.251 378.578 255.251H378.576Z" fill="#030231"/>
<path d="M398.447 255.251C398.447 255.251 399.176 266.214 397.103 266.366C396.827 266.388 386.585 266.388 386.585 266.388H373.375C373.375 266.388 373.598 263.166 377.418 262.502C381.239 261.838 387.636 259.155 389.95 254.113C392.386 248.808 398.447 255.251 398.447 255.251Z" fill="#030231"/>
<path d="M379.203 228.826C379.528 233.463 380.192 239.422 379.956 244.795C379.626 252.307 379.388 258.644 379.388 258.644C374.427 260.329 365.323 258.285 365.323 258.285C365.323 258.285 362.094 239.299 359.433 224.141C358.24 217.35 357.25 211.474 356.88 208.7C355.683 199.734 358.153 152.055 358.153 152.055C358.153 152.055 371.578 143.465 377.126 147.894C382.672 152.322 386.086 156.649 377.15 205.163C376.472 208.842 378.476 218.439 379.205 228.822L379.203 228.826Z" fill="#0B0754"/>
<path d="M379.203 228.826C379.528 233.463 380.128 240.882 379.892 246.253C375.224 241.321 366.026 230.917 359.433 224.141C358.24 217.35 357.25 211.474 356.88 208.7C355.683 199.734 358.153 152.055 358.153 152.055C358.153 152.055 371.578 143.465 377.126 147.894C382.672 152.322 386.086 156.649 377.15 205.163C376.472 208.842 378.476 218.439 379.205 228.822L379.203 228.826Z" fill="#030231"/>
<path d="M370.284 153.029C370.284 153.029 371.489 200.755 373.375 209.604C375.258 218.453 385.091 258.96 385.091 258.96C385.091 258.96 394.308 259.798 399.125 257.738C399.125 257.738 398.819 238.978 397.184 227.954C395.658 217.658 392.92 208.242 393.311 204.522C398.489 155.465 394.75 151.412 388.879 147.422C383.008 143.433 370.284 153.027 370.284 153.027V153.029Z" fill="#0B0754"/>
<path d="M388.505 157.207C388.505 157.207 385.312 163.606 391.451 168.495C391.451 168.495 394.112 170.311 394.521 167.95C394.929 165.588 394.459 166.411 395.101 163.098C395.743 159.786 394.922 156.361 393.013 154.869L388.507 157.207H388.505Z" fill="#FC9290"/>
<path d="M361.586 79.1481C361.586 79.1481 365.272 84.7419 364.536 89.9623L369.991 103.083L379.832 88.063C379.832 88.063 374.633 82.414 372.692 74.7129L361.586 79.1502V79.1481Z" fill="#FC9290"/>
<path d="M359.968 83.9207C359.968 83.9207 373.392 84.5 373.636 76.4572C373.881 68.4123 377.507 63.0604 367.467 62.3537C359.212 61.7723 356.467 65.2101 355.732 67.8754C354.996 70.5408 354.994 83.492 359.97 83.9228L359.968 83.9207Z" fill="#FC9290"/>
<path d="M392.831 155.327C389.946 155.595 385.975 155.928 381.159 156.229C380.196 156.289 379.201 156.35 378.174 156.405C363.629 157.218 357.849 154.867 357.849 154.867C357.849 154.867 357.464 154.555 357.585 152.851C358.217 144.07 360.085 141.476 359.86 139.806C359.354 136.056 350.239 105.447 350.239 105.447C350.239 105.447 350.063 95.779 360.836 91.2419C361.945 90.7729 363.169 90.3613 364.523 90.0175C364.995 91.2695 366.288 93.3598 369.595 92.9736C374.484 92.4048 377.966 89.5273 379.458 88.0503C379.728 88.0503 379.837 88.0588 379.837 88.0588C380.202 89.0859 380.485 90.1597 380.738 91.2483C381.622 95.049 382.137 99.047 384.475 102.035C386.781 104.987 388.754 107.896 390.437 110.742C391.838 113.11 393.041 115.436 394.068 117.702C403.603 138.741 396.227 155.005 392.833 155.323L392.831 155.327Z" fill="#FA7269"/>
<path d="M392.831 155.327C389.946 155.595 385.976 155.928 381.159 156.229C379.754 132.593 389.4 109.893 389.4 109.893C389.763 110.148 390.108 110.432 390.433 110.746C392.112 112.376 393.283 114.795 394.064 117.707C396.937 128.423 394.531 145.835 392.829 155.327H392.831Z" fill="#ED6966"/>
<path d="M355.643 76.2472C355.643 76.2472 353.03 86.5967 357.464 88.0545C361.898 89.5124 373.67 88.3453 373.666 75.6551C373.666 75.6551 367.489 79.3327 364.536 79.2414C361.586 79.1481 359.681 77.4483 356.954 78.7767C356.954 78.7767 355.957 78.7109 355.643 76.2472Z" fill="#BED2FA"/>
<path d="M379.832 88.0609C379.832 88.0609 389.215 88.271 394.172 94.7116C397.97 99.6455 401.986 126.123 401.986 130.108C401.986 134.094 397.709 156.096 395.315 158.487C395.315 158.487 393.766 158.886 391.698 158.487C389.502 158.065 388.209 156.796 388.209 156.796C388.209 156.796 389.402 132.3 389.402 130.004C389.402 126.679 378.984 106.317 378.984 106.317C378.984 106.317 373.581 96.6278 379.832 88.063V88.0609Z" fill="#FA7269"/>
<path d="M373.005 64.8536C372.779 64.0323 371.766 63.6015 371.766 63.6015C364.205 60.3144 358.682 63.9114 358.682 63.9114C363.316 57.7021 374.499 59.0051 376.854 64.6053C380.7 73.7494 373.666 75.6551 373.666 75.6551C373.666 75.6551 366.641 72.7075 370.709 69.0129C372.057 67.7884 372.709 66.6998 372.924 65.7533C372.996 65.4371 373.02 65.1379 373.005 64.8536Z" fill="#BED2FA"/>
<path d="M361.027 81.1683C361.027 81.1683 360.78 82.0469 358.574 81.8177C358.574 81.8177 356.72 81.6246 356.818 80.6526C356.818 80.6526 358.648 80.0351 361.027 81.1704V81.1683Z" fill="white"/>
<path d="M0.567545 266.396H471.435C471.747 266.396 472 266.649 472 266.961V267.171C472 267.483 471.747 267.735 471.435 267.735H0.567545C0.255077 267.735 0 267.483 0 267.168V266.958C0 266.646 0.252951 266.392 0.567545 266.392V266.396Z" fill="#010117"/>
</g>
<defs>
<clipPath id="clip0_21_212">
<rect width="472" height="273" fill="white"/>
</clipPath>
</defs>
</svg>
