<svg width="14" height="14" viewBox="0 0 14 14" fill="none" xmlns="http://www.w3.org/2000/svg">
<g clip-path="url(#clip0_101_195)">
<path d="M9.40343 4.53943L11.5497 2.39314M12.7762 1.16669L11.5497 2.39314L12.7762 1.16669ZM6.88307 7.05979C7.1997 7.37221 7.45141 7.74418 7.6237 8.15427C7.79598 8.56437 7.88545 9.0045 7.88694 9.44931C7.88843 9.89412 7.80192 10.3348 7.63238 10.7461C7.46285 11.1573 7.21364 11.531 6.8991 11.8455C6.58457 12.16 6.21093 12.4092 5.79969 12.5788C5.38844 12.7483 4.94773 12.8348 4.50291 12.8333C4.0581 12.8318 3.61797 12.7424 3.20788 12.5701C2.79778 12.3978 2.42581 12.1461 2.1134 11.8295C1.49902 11.1934 1.15907 10.3414 1.16675 9.45707C1.17444 8.57275 1.52915 7.72682 2.15448 7.10149C2.77981 6.47616 3.62574 6.12145 4.51006 6.11376C5.39439 6.10608 6.24635 6.44603 6.88246 7.06041L6.88307 7.05979ZM6.88307 7.05979L9.40343 4.53943L6.88307 7.05979ZM9.40343 4.53943L11.2431 6.37911L13.3894 4.23282L11.5497 2.39314L9.40343 4.53943Z" stroke="white" stroke-width="2" stroke-linecap="round" stroke-linejoin="round"/>
</g>
<defs>
<clipPath id="clip0_101_195">
<rect width="14" height="14" fill="white"/>
</clipPath>
</defs>
</svg>
