<svg width="20" height="20" viewBox="0 0 20 20" fill="none" xmlns="http://www.w3.org/2000/svg">
<path d="M2.36497 11.0096L4.68248 16.6475C5.02016 17.469 5.97235 17.846 6.78083 17.4782V17.4782C7.56979 17.1194 7.91765 16.1883 7.55725 15.4L5.54983 11.0096" stroke="#1A1A1A" stroke-width="2"/>
<path d="M16.0144 5.09493L18.2893 3.72998M16.0144 7.82482H18.2893M16.0144 11.0097L18.2893 11.9197" stroke="#1A1A1A" stroke-width="2" stroke-linecap="round"/>
<path d="M13.2845 15.1044V1C13.2845 3.72989 11.0096 5.09484 9.18967 5.09484H3C1.89543 5.09484 1 5.99027 1 7.09484V9.0096C1 10.1142 1.89543 11.0096 3 11.0096H9.18967C11.0096 11.0096 13.2845 11.9196 13.2845 15.1044Z" stroke="#1A1A1A" stroke-width="2" stroke-linejoin="round"/>
</svg>
