<svg width="20" height="22" viewBox="0 0 20 22" fill="none" xmlns="http://www.w3.org/2000/svg">
<g clip-path="url(#clip0_176_2239)">
<path d="M10.0689 9.81125C11.8955 9.81125 13.3762 8.31973 13.3762 6.47984C13.3762 4.63996 11.8955 3.14844 10.0689 3.14844C8.24231 3.14844 6.76157 4.63996 6.76157 6.47984C6.76157 8.31973 8.24231 9.81125 10.0689 9.81125Z" stroke="#1A1A1A" stroke-width="1.8" stroke-linecap="round" stroke-linejoin="round"/>
<path d="M9.84152 13.1777H8.40146C6.50664 13.1777 4.95633 14.7393 4.95633 16.6479V18.2789" stroke="#1A1A1A" stroke-width="1.8" stroke-linecap="round" stroke-linejoin="round"/>
<path d="M4.5808 8.96113C2.91336 8.81191 1.68 7.3336 1.82814 5.65402C1.97628 3.97443 3.44391 2.72863 5.11135 2.87784" stroke="#1A1A1A" stroke-width="1.8" stroke-linecap="round" stroke-linejoin="round"/>
<path d="M15.0058 2.87787C16.6732 2.72866 18.1443 3.97099 18.289 5.65058C18.4371 7.33016 17.2038 8.81194 15.5363 8.95769" stroke="#1A1A1A" stroke-width="1.8" stroke-linecap="round" stroke-linejoin="round"/>
<path d="M3.85733 12.6328C2.44482 13.0666 1.40784 14.3957 1.40784 15.9538V17.5848" stroke="#1A1A1A" stroke-width="1.8" stroke-linecap="round" stroke-linejoin="round"/>
<path d="M18.5922 14.4686C17.8583 13.5385 16.5113 12.0811 15.1126 12.0811C13.8103 12.0811 12.6941 12.8757 12.2152 14.0105" stroke="#1A1A1A" stroke-width="1.8" stroke-linecap="round" stroke-linejoin="round"/>
<path d="M16.029 14.4686H18.5922V11.8867" stroke="#1A1A1A" stroke-width="1.8" stroke-linecap="round" stroke-linejoin="round"/>
<path d="M11.6433 16.5542C12.3771 17.4842 13.7242 18.9417 15.1229 18.9417C16.4252 18.9417 17.5414 18.147 18.0203 17.0123" stroke="#1A1A1A" stroke-width="1.8" stroke-linecap="round" stroke-linejoin="round"/>
<path d="M14.2065 16.5542H11.6433V19.136" stroke="#1A1A1A" stroke-width="1.8" stroke-linecap="round" stroke-linejoin="round"/>
</g>
<defs>
<clipPath id="clip0_176_2239">
<rect width="18.9" height="18" fill="white" transform="translate(0.549999 2)"/>
</clipPath>
</defs>
</svg>
